#!OML:ASF I:\golf\golf\golf 2\Subject 1\2002-09-07\Subject1.ASF
:FULLY-SPECIFIED
:DEGREES
366
root -1.33702 16.0441 -3.41058 103.406 29.0665 35.1692
lowerback -0.818061 2.95356 9.24276
upperback 8.18829 2.94896 11.2036
thorax 9.1702 1.64776 7.2722
lowerneck -12.0498 -11.4047 -1.02439
upperneck -4.42442 -15.4726 0.57543
head 0.677373 -7.89764 -0.300833
rclavicle -2.22639e-014 -2.06736e-014
rhumerus 56.5735 -22.851 -39.7984
rradius 22.5211
rwrist 0.688166
rhand -41.2721 11.1672
rfingers 7.12502
rthumb -14.1938 -18.3278
lclavicle -2.22639e-014 -2.06736e-014
lhumerus -36.2178 -42.3572 109.322
lradius 78.6898
lwrist -1.31897
lhand -42.4769 25.7902
lfingers 7.12502
lthumb -15.3546 55.2001
rfemur -129.37 -26.2536 23.5802
rtibia 55.8417
rfoot -8.85545 -5.80626
rtoes 15.2131
lfemur -100.683 -16.4631 -13.7654
ltibia 32.524
lfoot 2.59577 -28.2164
ltoes 13.3306
367
root -1.33399 16.0425 -3.42168 103.343 28.9703 35.058
lowerback -0.86708 2.92567 9.1626
upperback 8.22342 2.90359 11.1603
thorax 9.23765 1.62164 7.27189
lowerneck -12.0024 -11.3473 -1.03203
upperneck -4.57382 -15.3966 0.641523
head 0.627329 -7.85984 -0.267429
rclavicle -3.49861e-014 -3.49861e-014
rhumerus 56.8854 -22.8908 -40.2572
rradius 22.4697
rwrist 1.08467
rhand -41.0115 10.538
rfingers 7.12502
rthumb -13.9427 -18.9746
lclavicle -3.49861e-014 -3.49861e-014
lhumerus -36.119 -42.2453 109.2
lradius 78.7229
lwrist -1.34694
lhand -42.4522 26.5035
lfingers 7.12502
lthumb -15.3308 55.9152
rfemur -129.417 -26.2112 23.4829
rtibia 55.8736
rfoot -8.76214 -5.74147
rtoes 14.5657
lfemur -100.762 -16.4564 -13.6159
ltibia 32.5494
lfoot 2.3889 -27.8277
ltoes 12.9179
368
root -1.32968 16.0475 -3.43377 103.263 29.0204 34.9896
lowerback -0.849714 2.90641 9.27777
upperback 8.22682 2.87376 11.1493
thorax 9.24127 1.61591 7.19258
lowerneck -11.928 -11.3142 -1.0231
upperneck -4.6358 -15.3548 0.618758
head 0.592594 -7.83931 -0.265618
rclavicle 9.85972e-014 -8.26944e-014
rhumerus 57.0861 -22.9236 -40.6292
rradius 22.4205
rwrist 1.38026
rhand -40.6405 10.0036
rfingers 7.12502
rthumb -13.5851 -19.5332
lclavicle 9.85972e-014 -8.26944e-014
lhumerus -36.1807 -42.236 109.166
lradius 78.7524
lwrist -1.49054
lhand -42.4124 26.6085
lfingers 7.12502
lthumb -15.2925 56.0231
rfemur -129.43 -26.1507 23.5535
rtibia 55.9233
rfoot -8.6381 -5.75078
rtoes 12.6895
lfemur -100.794 -16.4454 -13.3967
ltibia 32.5854
lfoot 2.20901 -27.4755
ltoes 13.1343
369
root -1.32382 16.0532 -3.44545 103.194 29.0827 34.9433
lowerback -0.791507 2.88983 9.42334
upperback 8.20314 2.85627 11.1371
thorax 9.19107 1.61847 7.08928
lowerneck -11.9258 -11.3099 -0.968881
upperneck -4.58014 -15.3563 0.490108
head 0.595463 -7.8416 -0.312556
rclavicle -1.27222e-014 6.04305e-014
rhumerus 57.1007 -22.8662 -40.7414
rradius 22.4359
rwrist 1.43425
rhand -40.3033 9.6242
rfingers 7.12502
rthumb -13.2601 -19.934
lclavicle -1.27222e-014 6.04305e-014
lhumerus -36.2479 -42.2793 109.143
lradius 78.837
lwrist -1.36289
lhand -42.4982 26.7584
lfingers 7.12502
lthumb -15.3751 56.1667
rfemur -129.433 -26.1246 23.6267
rtibia 55.9608
rfoot -8.55493 -5.77329
rtoes 11.4574
lfemur -100.837 -16.4605 -13.1361
ltibia 32.6359
lfoot 1.95716 -27.1641
ltoes 13.1881
370
root -1.31871 16.0548 -3.45712 103.075 29.0279 34.7948
lowerback -0.732059 2.89496 9.39259
upperback 8.20215 2.87377 11.106
thorax 9.15231 1.62578 7.0664
lowerneck -11.834 -11.3219 -0.933348
upperneck -4.71207 -15.3833 0.435293
head 0.530676 -7.85791 -0.322025
rclavicle 1.90833e-014 3.49861e-014
rhumerus 57.0904 -22.7805 -40.7904
rradius 22.4933
rwrist 1.34667
rhand -40.0402 9.25321
rfingers 7.12502
rthumb -13.0065 -20.3213
lclavicle 1.90833e-014 3.49861e-014
lhumerus -36.1364 -42.2207 109.041
lradius 78.5584
lwrist -1.54726
lhand -42.6918 25.7
lfingers 7.12502
lthumb -15.5616 55.0939
rfemur -129.44 -26.0547 23.5724
rtibia 55.9726
rfoot -8.51204 -5.69114
rtoes 11.5263
lfemur -100.911 -16.4491 -12.838
ltibia 32.7102
lfoot 1.38981 -26.7872
ltoes 12.3614
371
root -1.31441 16.0543 -3.4693 102.926 28.94 34.5725
lowerback -0.604182 2.9083 9.29498
upperback 8.16968 2.92073 11.0639
thorax 9.03097 1.64306 7.05966
lowerneck -11.6999 -11.3133 -0.858753
upperneck -4.86562 -15.3882 0.361911
head 0.447858 -7.86363 -0.337423
rclavicle 2.8625e-014 -2.70347e-014
rhumerus 57.0403 -22.6614 -40.8398
rradius 22.5688
rwrist 1.36064
rhand -39.7274 8.6815
rfingers 7.12502
rthumb -12.705 -20.912
lclavicle 2.8625e-014 -2.70347e-014
lhumerus -36.1184 -42.0552 109.004
lradius 78.4865
lwrist -1.47245
lhand -42.6405 25.4025
lfingers 7.12502
lthumb -15.5121 54.8002
rfemur -129.398 -25.9638 23.3596
rtibia 55.9485
rfoot -8.44242 -5.58169
rtoes 12.7529
lfemur -100.991 -16.3724 -12.6399
ltibia 32.8179
lfoot 0.746535 -26.5342
ltoes 11.3389
372
root -1.30876 16.0518 -3.48228 102.825 28.8793 34.3904
lowerback -0.511664 2.90434 9.25465
upperback 8.11574 2.93886 11.0167
thorax 8.91231 1.65071 7.0143
lowerneck -11.7032 -11.2384 -0.800419
upperneck -4.8513 -15.2927 0.29049
head 0.44309 -7.81618 -0.363194
rclavicle -6.36111e-015 -4.13472e-014
rhumerus 57.0896 -22.6279 -41.0921
rradius 22.5923
rwrist 1.85045
rhand -39.5363 8.1087
rfingers 7.12502
rthumb -12.5208 -21.4962
lclavicle -6.36111e-015 -4.13472e-014
lhumerus -36.2422 -41.9281 109.022
lradius 78.5669
lwrist -1.47101
lhand -42.5318 25.5031
lfingers 7.12502
lthumb -15.4074 54.909
rfemur -129.383 -25.8937 23.1906
rtibia 55.9173
rfoot -8.2761 -5.54134
rtoes 13.4677
lfemur -101.065 -16.2883 -12.6617
ltibia 32.9442
lfoot 0.48598 -26.465
ltoes 11.3078
373
root -1.30168 16.0477 -3.49695 102.747 28.884 34.2413
lowerback -0.621047 2.92901 9.26886
upperback 8.14974 2.94678 11.0054
thorax 9.01743 1.65509 7.00872
lowerneck -11.6603 -11.1804 -0.830138
upperneck -4.94558 -15.2106 0.36919
head 0.414674 -7.77388 -0.326148
rclavicle -6.36111e-014 -2.38542e-014
rhumerus 57.3486 -22.853 -41.6218
rradius 22.5391
rwrist 2.71302
rhand -39.483 7.75692
rfingers 7.12502
rthumb -12.4694 -21.8511
lclavicle -6.36111e-014 -2.38542e-014
lhumerus -36.2569 -42.008 108.998
lradius 78.6908
lwrist -1.5628
lhand -42.4891 25.7012
lfingers 7.12502
lthumb -15.3663 55.1102
rfemur -129.433 -25.7997 23.2145
rtibia 55.8938
rfoot -8.01316 -5.51799
rtoes 12.9036
lfemur -101.12 -16.2118 -12.6886
ltibia 33.0691
lfoot -0.00996436 -26.5538
ltoes 10.3843
374
root -1.29533 16.05 -3.5116 102.661 28.9887 34.1508
lowerback -0.71636 2.96532 9.36748
upperback 8.19837 2.96608 11.0344
thorax 9.13516 1.66939 7.00437
lowerneck -11.669 -11.1954 -0.858533
upperneck -4.90176 -15.2248 0.437401
head 0.437785 -7.77943 -0.305784
rclavicle 1.81292e-013 4.13472e-014
rhumerus 57.4706 -23.0586 -41.9548
rradius 22.5426
rwrist 3.23601
rhand -39.4594 7.47995
rfingers 7.12502
rthumb -12.4466 -22.1294
lclavicle 1.81292e-013 4.13472e-014
lhumerus -36.1824 -42.1394 108.929
lradius 78.8283
lwrist -1.56686
lhand -42.4141 25.5847
lfingers 7.12502
lthumb -15.294 54.9992
rfemur -129.415 -25.7408 23.2914
rtibia 55.8815
rfoot -7.80557 -5.48135
rtoes 12.58
lfemur -101.138 -16.1585 -12.6156
ltibia 33.1758
lfoot -0.489222 -26.6383
ltoes 9.33311
375
root -1.28934 16.0583 -3.525 102.567 29.113 34.1205
lowerback -0.721812 2.98729 9.49381
upperback 8.19951 2.98648 11.0665
thorax 9.14705 1.68658 6.97442
lowerneck -11.5641 -11.2425 -0.926414
upperneck -4.9051 -15.2783 0.572729
head 0.43582 -7.80349 -0.252592
rclavicle 6.36111e-014 2.2741e-013
rhumerus 57.3781 -23.1479 -42.052
rradius 22.5715
rwrist 3.40128
rhand -39.3177 6.95834
rfingers 7.12502
rthumb -12.31 -22.6593
lclavicle 6.36111e-014 2.2741e-013
lhumerus -36.1213 -42.2837 108.91
lradius 78.8757
lwrist -1.56734
lhand -42.3203 25.5609
lfingers 7.12502
lthumb -15.2037 54.9823
rfemur -129.294 -25.7532 23.2899
rtibia 55.8721
rfoot -7.72429 -5.46668
rtoes 12.8923
lfemur -101.123 -16.1542 -12.5124
ltibia 33.2543
lfoot -0.736855 -26.6285
ltoes 9.05042
